# Blender v2.80 (sub 75) OBJ File: 'doors_b.blend'
# www.blender.org
mtllib door_b.mtl
o Cube_Cube.000
v -0.496000 7.496000 -0.496000
v -0.496000 -0.496000 -0.496000
v -0.496000 -0.496000 -0.000000
v -0.496000 7.496000 0.000000
v 3.496000 -0.496000 -0.000000
v 3.496000 7.496000 0.000000
v 3.496000 -0.496000 -0.496000
v 3.496000 7.496000 -0.496000
vt 0.842105 1.000000
vt 0.842105 0.000000
vt 0.894737 0.000000
vt 0.894737 1.000000
vt 0.421053 1.000000
vt 0.421053 0.000000
vt 0.842105 0.000000
vt 0.842105 1.000000
vt 0.894737 1.000000
vt 0.894737 0.000000
vt 0.947368 0.000000
vt 0.947368 1.000000
vt 0.000000 1.000000
vt 0.000000 0.000000
vt 0.421053 0.000000
vt 0.421053 1.000000
vt 1.000000 0.000000
vt 1.000000 0.500000
vt 0.947368 0.500000
vt 0.947368 0.000000
vt 0.947368 0.500000
vt 1.000000 0.500000
vt 1.000000 1.000000
vn -1.0000 -0.0000 0.0000
vn 0.0000 -0.0000 1.0000
vn 1.0000 -0.0000 0.0000
vn 0.0000 0.0000 -1.0000
vn 0.0000 -1.0000 0.0000
vn 0.0000 1.0000 0.0000
usemtl None.001
s 1
f 1/1/1 2/2/1 3/3/1 4/4/1
f 4/5/2 3/6/2 5/7/2 6/8/2
f 6/9/3 5/10/3 7/11/3 8/12/3
f 8/13/4 7/14/4 2/15/4 1/16/4
f 2/17/5 7/18/5 5/19/5 3/20/5
f 8/12/6 1/21/6 4/22/6 6/23/6
